
<svg version="1.1" baseProfile="tiny" id="Layer_1" xmlns="http://www.w3.org/2000/svg" xmlns:xlink="http://www.w3.org/1999/xlink"
	 x="0px" y="0px" viewBox="0 0 145.62 145.62" xml:space="preserve">
<g>
	<path fill="#FFFFFF" d="M43.608,67.04c-0.245-0.133-0.527-0.215-0.831-0.215c-0.533,0-1.013,0.246-1.326,0.627
		c-0.316-0.381-0.794-0.627-1.329-0.627c-0.301,0-0.583,0.082-0.829,0.215c-0.533,0.297-0.894,0.859-0.894,1.512
		c0,0.187,0.031,0.363,0.086,0.529c0.295,1.33,2.965,3.008,2.965,3.008s2.669-1.678,2.965-3.008
		c0.057-0.166,0.085-0.344,0.085-0.529C44.499,67.899,44.141,67.336,43.608,67.04z"/>
	<circle fill="#FFFFFF" cx="73.468" cy="72.991" r="72.81"/>
	<path fill="#766958" d="M92.193,86.336c0,0.74-0.598,1.34-1.338,1.34c-0.739,0-1.338-0.6-1.338-1.34
		c0-0.736,0.599-1.338,1.338-1.338C91.596,84.999,92.193,85.6,92.193,86.336z"/>
	<circle fill="#766958" cx="83.646" cy="83.164" r="1.235"/>
	<circle fill="#766958" cx="77.355" cy="51.794" r="5.402"/>
	<circle fill="#766958" cx="106.549" cy="76.76" r="5.402"/>
	<circle fill="#766958" cx="37.68" cy="68.053" r="5.175"/>
	<circle fill="#766958" cx="57.972" cy="61.723" r="5.402"/>
	<circle fill="#766958" cx="82.17" cy="59.261" r="2.648"/>
	<path fill="#F42536" d="M80.934,68.503c-0.342-0.187-0.734-0.297-1.154-0.297c-0.738,0-1.399,0.339-1.838,0.865
		c-0.439-0.526-1.102-0.865-1.844-0.865c-0.418,0-0.809,0.11-1.152,0.297c-0.737,0.411-1.235,1.194-1.235,2.097
		c0,0.258,0.041,0.504,0.116,0.736c0.41,1.844,4.115,4.168,4.115,4.168s3.699-2.324,4.111-4.168
		c0.076-0.232,0.118-0.479,0.118-0.736C82.171,69.698,81.672,68.915,80.934,68.503z"/>
	<path fill="#766958" d="M71.832,67.123c0,1.595-1.291,2.887-2.884,2.887c-1.594,0-2.885-1.292-2.885-2.887
		c0-1.591,1.291-2.883,2.885-2.883C70.541,64.24,71.832,65.532,71.832,67.123z"/>
	<circle fill="#766958" cx="27.522" cy="56.933" r="2.884"/>
	<circle fill="#766958" cx="35.072" cy="55.387" r="4.225"/>
	<circle fill="#766958" cx="80.723" cy="93.822" r="4.224"/>
	<circle fill="#766958" cx="106.183" cy="98.913" r="3.412"/>
	<circle fill="#766958" cx="94.086" cy="69.814" r="3.412"/>
	<circle fill="#766958" cx="87.843" cy="72.414" r="2.853"/>
	<circle fill="#766958" cx="67.962" cy="74.385" r="3.412"/>
	<circle fill="#766958" cx="44.744" cy="57.196" r="3.412"/>
	<path fill="#766958" d="M59.394,73.228c0,1.884-1.527,3.411-3.411,3.411c-1.886,0-3.413-1.527-3.413-3.411
		c0-1.888,1.527-3.413,3.413-3.413C57.866,69.815,59.394,71.34,59.394,73.228z"/>
	<circle fill="#766958" cx="90.964" cy="54.138" r="3.413"/>
	<circle fill="#766958" cx="72.48" cy="85.168" r="3.412"/>
	<circle fill="#766958" cx="69.597" cy="59.731" r="3.412"/>
	<circle fill="#766958" cx="30.039" cy="62.42" r="2.602"/>
	<circle fill="#766958" cx="26.848" cy="51.119" r="2.466"/>
	<circle fill="#766958" cx="61.797" cy="76.445" r="2.603"/>
	<circle fill="#766958" cx="62.694" cy="69.814" r="2.937"/>
	<circle fill="#766958" cx="85.816" cy="88.58" r="2.602"/>
	<circle fill="#766958" cx="114.553" cy="71.357" r="2.603"/>
	<circle fill="#766958" cx="94.796" cy="76.466" r="2.602"/>
	<circle fill="#766958" cx="100.822" cy="70.298" r="2.603"/>
	<circle fill="#766958" cx="98.221" cy="65.604" r="2.043"/>
	<path fill="#766958" d="M70.055,81.1c0,1.563-1.265,2.831-2.827,2.831c-1.561,0-2.828-1.268-2.828-2.831
		c0-1.56,1.269-2.823,2.828-2.823C68.79,78.276,70.055,79.541,70.055,81.1z"/>
	<circle fill="#766958" cx="73.709" cy="79.354" r="2.046"/>
	<circle fill="#766958" cx="100.822" cy="96.866" r="2.045"/>
	<circle fill="#766958" cx="103.616" cy="94.58" r="1.291"/>
	<circle fill="#766958" cx="97.373" cy="94.074" r="1.291"/>
	<circle fill="#766958" cx="106.381" cy="94.073" r="0.967"/>
	<circle fill="#766958" cx="101.276" cy="93.851" r="0.729"/>
	<circle fill="#766958" cx="101.874" cy="99.72" r="0.772"/>
	<circle fill="#766958" cx="39.672" cy="60.35" r="1.85"/>
	<circle fill="#766958" cx="84.819" cy="54.765" r="1.946"/>
	<circle fill="#766958" cx="85.505" cy="50.283" r="2.046"/>
	<circle fill="#766958" cx="64.271" cy="56.923" r="2.046"/>
	<circle fill="#766958" cx="69.811" cy="53.88" r="1.952"/>
	<circle fill="#766958" cx="99.541" cy="61.305" r="2.043"/>
	<circle fill="#766958" cx="109.41" cy="69.513" r="1.995"/>
	<circle fill="#766958" cx="79.612" cy="86.027" r="3.226"/>
	<circle fill="#766958" cx="97.787" cy="56.611" r="2.602"/>
	<circle fill="#766958" cx="76.414" cy="61.867" r="2.602"/>
	<circle fill="#766958" cx="47.172" cy="64.888" r="3.896"/>
	<path fill="#766958" d="M88.385,65.799c0,1.438-1.166,2.602-2.603,2.602c-1.438,0-2.603-1.163-2.603-2.602s1.165-2.604,2.603-2.604
		C87.219,63.195,88.385,64.36,88.385,65.799z"/>
	<circle fill="#766958" cx="49.011" cy="70.972" r="2.057"/>
	<circle fill="#766958" cx="79.67" cy="79.897" r="1.641"/>
	<circle fill="#766958" cx="83.435" cy="77.545" r="1.264"/>
	<circle fill="#766958" cx="99.033" cy="74.385" r="1.264"/>
	<circle fill="#766958" cx="95.869" cy="83.733" r="2.603"/>
	<circle fill="#766958" cx="101.146" cy="82.802" r="2.112"/>
	<circle fill="#766958" cx="99.033" cy="78.254" r="1.661"/>
	<circle fill="#766958" cx="102.483" cy="58.533" r="1.661"/>
	<circle fill="#766958" cx="87.122" cy="58.532" r="1.821"/>
	<circle fill="#766958" cx="50.608" cy="58.05" r="2.102"/>
	<circle fill="#766958" cx="52.86" cy="67.822" r="2.102"/>
	<circle fill="#766958" cx="65.222" cy="63.831" r="1.614"/>
	<circle fill="#766958" cx="81.129" cy="63.65" r="1.337"/>
	<circle fill="#766958" cx="74.317" cy="58.049" r="1.337"/>
	<path fill="#766958" d="M74.318,64.653c0,0.734-0.598,1.337-1.338,1.337c-0.738,0-1.338-0.603-1.338-1.337
		c0-0.741,0.6-1.341,1.338-1.341C73.721,63.313,74.318,63.912,74.318,64.653z"/>
	<circle fill="#766958" cx="78.312" cy="99.387" r="1.338"/>
	<circle fill="#766958" cx="34.464" cy="61.492" r="1.339"/>
	<circle fill="#766958" cx="75.126" cy="90.293" r="1.848"/>
	<path fill="#766958" d="M76.135,105.096c0,1.024-0.828,1.854-1.848,1.854c-1.021,0-1.851-0.828-1.851-1.854
		c0-1.018,0.828-1.848,1.851-1.848C75.307,103.249,76.135,104.079,76.135,105.096z"/>
	<circle fill="#766958" cx="79.36" cy="104.263" r="2.862"/>
	<circle fill="#766958" cx="92.067" cy="62.12" r="3.783"/>
	<circle fill="#766958" cx="88.668" cy="80.433" r="3.969"/>
	<circle fill="#766958" cx="105.371" cy="64.239" r="4.224"/>
</g>
</svg>
