<?xml version="1.0" encoding="utf-8"?>
<!-- Generator: Adobe Illustrator 16.0.4, SVG Export Plug-In . SVG Version: 6.00 Build 0)  -->
<!DOCTYPE svg PUBLIC "-//W3C//DTD SVG 1.1 Tiny//EN" "http://www.w3.org/Graphics/SVG/1.1/DTD/svg11-tiny.dtd">
<svg version="1.1" baseProfile="tiny" id="Layer_1" xmlns="http://www.w3.org/2000/svg" xmlns:xlink="http://www.w3.org/1999/xlink"
	 x="0px" y="0px" width="184.375px" height="184.375px" viewBox="0 0 184.375 184.375" xml:space="preserve">
<g>
	<path fill-rule="evenodd" d="M184.375,92.25c-0.029,51.046-41.085,92.1-92.133,92.125C40.98,184.4-0.172,143.129,0,91.868
		C0.173,40.799,41.291-0.093,92.374,0C143.421,0.093,184.404,41.186,184.375,92.25z M138.996,97.827
		c4.277,2.25,5.515,2.001,9.008-3.013c1.708-2.452,3.056-5.16,4.809-7.576c2.521-3.472,0.684-7.059-1.716-8.116
		c-4.583-2.019-6.15-6.2-9.192-9.275c-3.553-3.59-7.688-6.85-12.11-9.268c-5.216-2.851-11.43-3.962-16.451-7.06
		c-7.393-4.56-14.753-2.1-20.019,3.744c-1.492,1.656-3.42,3.576-5.434,3.993c-8.607,1.779-17.062,2.88-26.018,0.067
		c-7.283-2.288-15.076-6.4-22.783-1.646c-0.811-1.45-1.259-3.438-2.434-4.066c-1.667-0.891-3.87-0.782-5.844-1.1
		c0.652,1.589,1.233,3.214,1.988,4.752c0.397,0.809,1.102,1.467,1.826,2.396c-1.704,0.709-3.041,1.264-5.209,2.166
		c1.315,2.053,2.357,3.764,3.484,5.418c1.786,2.619,4.239,4.967,5.328,7.84c2.942,7.764,10.533,11.847,18.66,9.982
		c4.092-0.939,8.389-1.342,11.824,2.504c1.101,1.232,3.325,1.384,4.845,2.335c4.242,2.655,8.47,5.35,12.521,8.282
		c1.567,1.135,2.374,3.788,3.989,4.306c6.355,2.036,7.877,8.211,11.279,12.637c2.893,3.762,1.562,7.091-2.528,9.958
		c-1.54,1.079-2.942,2.355-4.407,3.542c0.097,0.527,0.192,1.055,0.289,1.582c3.325,0.268,6.69,0.976,9.966,0.68
		c3.34-0.301,5.813-6.205,3.502-7.911c-5.22-3.855-1.223-4.343,1.699-5.313c1.082-0.359,2.221-0.552,2.071-0.516
		c2.066-3.485,3.052-6.825,5.285-8.543c3.96-3.048,8.691-5.088,13.071-7.598C133.023,101.448,135.701,99.795,138.996,97.827z
		 M125.461,124.675c4.753,2.059,8.903,3.856,13.468,5.833c0.835-2.616,2.541-5.087,1.98-6.828c-1.034-3.206-2.865-6.72-5.456-8.601
		c-1.161-0.842-5.356,1.486-7.426,3.253C126.559,119.586,126.346,122.31,125.461,124.675z"/>
	<path fill-rule="evenodd" fill="#FFFFFF" d="M138.996,97.827c-3.295,1.968-5.973,3.621-8.702,5.184
		c-4.38,2.51-9.111,4.55-13.071,7.598c-2.233,1.718-3.219,5.058-5.285,8.543c0.149-0.036-0.989,0.156-2.071,0.516
		c-2.922,0.971-6.919,1.458-1.699,5.313c2.312,1.706-0.162,7.61-3.502,7.911c-3.275,0.296-6.641-0.412-9.966-0.68
		c-0.097-0.527-0.192-1.055-0.289-1.582c1.465-1.187,2.867-2.463,4.407-3.542c4.091-2.867,5.421-6.196,2.528-9.958
		c-3.402-4.426-4.924-10.601-11.279-12.637c-1.615-0.518-2.421-3.171-3.989-4.306c-4.051-2.933-8.279-5.627-12.521-8.282
		c-1.52-0.951-3.744-1.103-4.845-2.335c-3.435-3.846-7.732-3.444-11.824-2.504c-8.127,1.865-15.718-2.218-18.66-9.982
		c-1.089-2.873-3.542-5.221-5.328-7.84c-1.127-1.654-2.168-3.366-3.484-5.418c2.169-0.901,3.505-1.457,5.209-2.166
		c-0.724-0.93-1.429-1.588-1.826-2.396c-0.755-1.538-1.336-3.163-1.988-4.752c1.974,0.318,4.176,0.209,5.844,1.1
		c1.175,0.628,1.623,2.616,2.434,4.066c7.707-4.753,15.5-0.642,22.783,1.646c8.957,2.813,17.411,1.711,26.018-0.067
		c2.014-0.417,3.941-2.337,5.434-3.993c5.266-5.843,12.626-8.304,20.019-3.744c5.021,3.097,11.235,4.208,16.451,7.06
		c4.422,2.417,8.558,5.678,12.11,9.268c3.042,3.075,4.609,7.256,9.192,9.275c2.399,1.058,4.237,4.644,1.716,8.116
		c-1.753,2.416-3.101,5.124-4.809,7.576C144.51,99.828,143.273,100.077,138.996,97.827z"/>
	<path fill-rule="evenodd" fill="#FFFFFF" d="M125.461,124.675c0.885-2.365,1.098-5.089,2.566-6.343
		c2.069-1.767,6.265-4.095,7.426-3.253c2.591,1.881,4.422,5.395,5.456,8.601c0.561,1.741-1.146,4.212-1.98,6.828
		C134.365,128.531,130.214,126.733,125.461,124.675z"/>
</g>
</svg>
