
<svg version="1.1" baseProfile="tiny" id="Layer_1" xmlns="http://www.w3.org/2000/svg" xmlns:xlink="http://www.w3.org/1999/xlink"
	 x="0px" y="0px" viewBox="0 0 86.844 56.851" xml:space="preserve">
<g>
	<path fill="#BC0B24" d="M52.576,21.877c-0.32-0.176-0.689-0.279-1.08-0.279c-0.693,0-1.314,0.318-1.725,0.812
		c-0.408-0.494-1.029-0.812-1.727-0.812c-0.389,0-0.758,0.104-1.076,0.279c-0.693,0.383-1.158,1.115-1.158,1.961
		c0,0.242,0.039,0.473,0.109,0.688c0.383,1.729,3.852,3.906,3.852,3.906s3.467-2.178,3.85-3.906
		c0.072-0.215,0.109-0.445,0.109-0.688C53.73,22.992,53.266,22.26,52.576,21.877z"/>
	<g>
		<path fill="#A38A7B" d="M63.113,38.568c0,0.693-0.559,1.254-1.25,1.254c-0.693,0-1.256-0.561-1.256-1.254
			c0-0.688,0.562-1.252,1.256-1.252C62.555,37.316,63.113,37.879,63.113,38.568z"/>
		<path fill="#A38A7B" d="M56.268,35.598c0,0.641-0.518,1.158-1.152,1.158c-0.645,0-1.16-0.518-1.16-1.158
			c0-0.639,0.518-1.156,1.16-1.156C55.752,34.441,56.268,34.959,56.268,35.598z"/>
		<circle fill="#A38A7B" cx="49.225" cy="6.237" r="5.058"/>
		<circle fill="#A38A7B" cx="76.553" cy="29.604" r="5.057"/>
		<path fill="#A38A7B" d="M16.93,21.453c0,2.676-2.168,4.844-4.846,4.844c-2.674,0-4.84-2.168-4.84-4.844
			c0-2.674,2.166-4.844,4.84-4.844C14.762,16.609,16.93,18.779,16.93,21.453z"/>
		<path fill="#A38A7B" d="M36.139,15.525c0,2.793-2.266,5.062-5.057,5.062c-2.793,0-5.061-2.269-5.061-5.062
			c0-2.789,2.268-5.055,5.061-5.055C33.873,10.471,36.139,12.736,36.139,15.525z"/>
		<circle fill="#A38A7B" cx="53.732" cy="13.223" r="2.479"/>
		<path fill="#A38A7B" d="M44.055,20.586c0,1.49-1.207,2.697-2.697,2.697c-1.494,0-2.701-1.207-2.701-2.697
			c0-1.494,1.207-2.701,2.701-2.701C42.848,17.885,44.055,19.092,44.055,20.586z"/>
		<path fill="#A38A7B" d="M5.275,11.043c0,1.494-1.207,2.701-2.695,2.701c-1.494,0-2.701-1.207-2.701-2.701
			c0-1.49,1.207-2.697,2.701-2.697C4.068,8.346,5.275,9.553,5.275,11.043z"/>
		<circle fill="#A38A7B" cx="9.645" cy="9.596" r="3.954"/>
		<path fill="#A38A7B" d="M56.332,45.576c0,2.184-1.773,3.957-3.955,3.957c-2.186,0-3.955-1.773-3.955-3.957
			c0-2.182,1.77-3.951,3.955-3.951C54.559,41.625,56.332,43.395,56.332,45.576z"/>
		<circle fill="#A38A7B" cx="76.211" cy="50.342" r="3.193"/>
		<path fill="#A38A7B" d="M68.078,23.102c0,1.768-1.432,3.195-3.191,3.195c-1.764,0-3.195-1.428-3.195-3.195
			c0-1.762,1.432-3.193,3.195-3.193C66.646,19.908,68.078,21.34,68.078,23.102z"/>
		<circle fill="#A38A7B" cx="59.041" cy="25.536" r="2.671"/>
		<path fill="#A38A7B" d="M43.625,27.379c0,1.768-1.428,3.195-3.191,3.195c-1.766,0-3.195-1.429-3.195-3.195
			c0-1.762,1.43-3.191,3.195-3.191C42.197,24.188,43.625,25.617,43.625,27.379z"/>
		<path fill="#A38A7B" d="M21.893,11.291c0,1.768-1.428,3.195-3.193,3.195c-1.764,0-3.195-1.429-3.195-3.195
			c0-1.762,1.432-3.191,3.195-3.191C20.465,8.1,21.893,9.529,21.893,11.291z"/>
		<circle fill="#A38A7B" cx="29.217" cy="26.296" r="3.194"/>
		<path fill="#A38A7B" d="M65.158,8.428c0,1.764-1.434,3.195-3.193,3.195c-1.764,0-3.195-1.433-3.195-3.195
			c0-1.762,1.432-3.195,3.195-3.195C63.727,5.232,65.158,6.666,65.158,8.428z"/>
		<path fill="#A38A7B" d="M47.855,37.473c0,1.768-1.432,3.195-3.193,3.195c-1.768,0-3.191-1.428-3.191-3.195
			c0-1.762,1.426-3.193,3.191-3.193C46.426,34.279,47.855,35.711,47.855,37.473z"/>
		<circle fill="#A38A7B" cx="41.963" cy="13.664" r="3.193"/>
		<path fill="#A38A7B" d="M7.369,16.182c0,1.346-1.088,2.436-2.439,2.436c-1.344,0-2.436-1.09-2.436-2.436s1.092-2.438,2.436-2.438
			C6.281,13.744,7.369,14.836,7.369,16.182z"/>
		<circle fill="#A38A7B" cx="1.943" cy="5.602" r="2.309"/>
		<circle fill="#A38A7B" cx="34.662" cy="29.311" r="2.436"/>
		<path fill="#A38A7B" d="M38.25,23.102c0,1.52-1.23,2.752-2.75,2.752s-2.746-1.232-2.746-2.752c0-1.518,1.229-2.746,2.746-2.746
			C37.02,20.355,38.25,21.584,38.25,23.102z"/>
		<circle fill="#A38A7B" cx="57.145" cy="40.668" r="2.438"/>
		<path fill="#A38A7B" d="M86.479,24.547c0,1.342-1.088,2.438-2.438,2.438c-1.344,0-2.434-1.096-2.434-2.438
			c0-1.346,1.09-2.438,2.434-2.438C85.393,22.109,86.479,23.201,86.479,24.547z"/>
		<path fill="#A38A7B" d="M67.984,29.33c0,1.346-1.09,2.434-2.436,2.434c-1.342,0-2.438-1.088-2.438-2.434s1.096-2.438,2.438-2.438
			C66.895,26.893,67.984,27.984,67.984,29.33z"/>
		<circle fill="#A38A7B" cx="71.191" cy="23.557" r="2.438"/>
		<circle fill="#A38A7B" cx="68.754" cy="19.161" r="1.913"/>
		<path fill="#A38A7B" d="M42.393,33.668c0,1.463-1.186,2.646-2.648,2.646c-1.459,0-2.646-1.184-2.646-2.646
			s1.189-2.646,2.646-2.646C41.207,31.021,42.393,32.205,42.393,33.668z"/>
		<path fill="#A38A7B" d="M47.727,32.031c0,1.059-0.857,1.916-1.916,1.916s-1.914-0.857-1.914-1.916
			c0-1.055,0.855-1.914,1.914-1.914S47.727,30.977,47.727,32.031z"/>
		<path fill="#A38A7B" d="M73.107,48.426c0,1.057-0.857,1.916-1.92,1.916c-1.055,0-1.912-0.859-1.912-1.916
			c0-1.059,0.857-1.914,1.912-1.914C72.25,46.512,73.107,47.367,73.107,48.426z"/>
		<circle fill="#A38A7B" cx="73.807" cy="46.284" r="1.208"/>
		<path fill="#A38A7B" d="M69.172,45.811c0,0.668-0.543,1.207-1.207,1.207c-0.668,0-1.209-0.539-1.209-1.207
			c0-0.666,0.541-1.209,1.209-1.209C68.629,44.602,69.172,45.145,69.172,45.811z"/>
		<path fill="#A38A7B" d="M77.301,45.812c0,0.498-0.404,0.902-0.904,0.902s-0.904-0.404-0.904-0.902
			c0-0.502,0.404-0.906,0.904-0.906S77.301,45.311,77.301,45.812z"/>
		<path fill="#A38A7B" d="M72.301,45.605c0,0.373-0.307,0.68-0.686,0.68c-0.377,0-0.682-0.307-0.682-0.68
			c0-0.381,0.305-0.686,0.682-0.686C71.994,44.92,72.301,45.225,72.301,45.605z"/>
		<circle fill="#A38A7B" cx="72.176" cy="51.096" r="0.725"/>
		<path fill="#A38A7B" d="M15.682,14.242c0,0.955-0.775,1.732-1.732,1.732c-0.953,0-1.73-0.777-1.73-1.732
			c0-0.957,0.777-1.731,1.73-1.731C14.906,12.51,15.682,13.285,15.682,14.242z"/>
		<circle fill="#A38A7B" cx="56.211" cy="9.014" r="1.82"/>
		<circle fill="#A38A7B" cx="56.854" cy="4.819" r="1.915"/>
		<path fill="#A38A7B" d="M38.893,11.037c0,1.059-0.855,1.914-1.918,1.914c-1.055,0-1.912-0.855-1.912-1.914
			c0-1.058,0.857-1.916,1.912-1.916C38.037,9.121,38.893,9.98,38.893,11.037z"/>
		<circle fill="#A38A7B" cx="42.162" cy="8.19" r="1.827"/>
		<circle fill="#A38A7B" cx="69.99" cy="15.137" r="1.913"/>
		<path fill="#A38A7B" d="M81.1,22.82c0,1.033-0.838,1.871-1.871,1.871c-1.029,0-1.863-0.838-1.863-1.871
			c0-1.029,0.834-1.867,1.863-1.867C80.262,20.953,81.1,21.791,81.1,22.82z"/>
		<path fill="#A38A7B" d="M54.355,38.279c0,1.668-1.35,3.021-3.02,3.021c-1.666,0-3.018-1.354-3.018-3.021s1.352-3.018,3.018-3.018
			C53.008,35.262,54.355,36.611,54.355,38.279z"/>
		<path fill="#A38A7B" d="M70.789,10.742c0,1.349-1.092,2.438-2.439,2.438c-1.344,0-2.436-1.09-2.436-2.438
			c0-1.342,1.092-2.434,2.436-2.434C69.697,8.309,70.789,9.4,70.789,10.742z"/>
		<circle fill="#A38A7B" cx="48.344" cy="15.664" r="2.435"/>
		<circle fill="#A38A7B" cx="20.969" cy="18.491" r="3.646"/>
		<circle fill="#A38A7B" cx="57.115" cy="19.344" r="2.436"/>
		<path fill="#A38A7B" d="M24.615,24.186c0,1.062-0.857,1.924-1.924,1.924c-1.064,0-1.928-0.861-1.928-1.924
			c0-1.064,0.863-1.926,1.928-1.926C23.758,22.26,24.615,23.121,24.615,24.186z"/>
		<circle fill="#A38A7B" cx="51.391" cy="32.539" r="1.535"/>
		<path fill="#A38A7B" d="M56.098,30.338c0,0.654-0.527,1.184-1.18,1.184c-0.656,0-1.188-0.529-1.188-1.184
			c0-0.652,0.529-1.184,1.188-1.184C55.568,29.154,56.098,29.686,56.098,30.338z"/>
		<circle fill="#A38A7B" cx="69.518" cy="27.383" r="1.186"/>
		<circle fill="#A38A7B" cx="66.557" cy="36.133" r="2.436"/>
		<path fill="#A38A7B" d="M73.471,35.26c0,1.094-0.883,1.977-1.975,1.977c-1.096,0-1.98-0.883-1.98-1.977
			c0-1.092,0.887-1.979,1.98-1.979C72.588,33.281,73.471,34.168,73.471,35.26z"/>
		<path fill="#A38A7B" d="M71.068,31.004c0,0.857-0.693,1.555-1.551,1.555s-1.559-0.697-1.559-1.555
			c0-0.859,0.699-1.555,1.559-1.555C70.375,29.449,71.068,30.145,71.068,31.004z"/>
		<circle fill="#A38A7B" cx="72.748" cy="12.539" r="1.555"/>
		<path fill="#A38A7B" d="M60.072,12.539c0,0.945-0.766,1.705-1.705,1.705c-0.941,0-1.705-0.76-1.705-1.705
			c0-0.938,0.764-1.701,1.705-1.701C59.307,10.838,60.072,11.602,60.072,12.539z"/>
		<circle fill="#A38A7B" cx="24.186" cy="12.09" r="1.967"/>
		<path fill="#A38A7B" d="M28.264,21.238c0,1.088-0.879,1.969-1.967,1.969c-1.09,0-1.967-0.881-1.967-1.969
			c0-1.086,0.877-1.969,1.967-1.969C27.385,19.27,28.264,20.152,28.264,21.238z"/>
		<path fill="#A38A7B" d="M39.379,17.5c0,0.838-0.678,1.512-1.512,1.512s-1.514-0.674-1.514-1.512c0-0.834,0.68-1.512,1.514-1.512
			S39.379,16.666,39.379,17.5z"/>
		<path fill="#A38A7B" d="M54.008,17.332c0,0.692-0.559,1.254-1.252,1.254c-0.689,0-1.25-0.562-1.25-1.254
			c0-0.689,0.561-1.254,1.25-1.254C53.449,16.078,54.008,16.643,54.008,17.332z"/>
		<circle fill="#A38A7B" cx="46.383" cy="12.09" r="1.254"/>
		<circle fill="#A38A7B" cx="45.129" cy="18.27" r="1.253"/>
		<path fill="#A38A7B" d="M51.373,50.783c0,0.693-0.562,1.254-1.25,1.254c-0.693,0-1.254-0.561-1.254-1.254
			c0-0.688,0.561-1.25,1.254-1.25C50.811,49.533,51.373,50.094,51.373,50.783z"/>
		<circle fill="#A38A7B" cx="9.074" cy="15.311" r="1.253"/>
		<circle fill="#A38A7B" cx="47.137" cy="42.272" r="1.731"/>
		<path fill="#A38A7B" d="M48.084,56.131c0,0.957-0.775,1.732-1.732,1.732c-0.953,0-1.729-0.775-1.729-1.732
			c0-0.953,0.773-1.732,1.729-1.732C47.309,54.398,48.084,55.178,48.084,56.131z"/>
		<path fill="#A38A7B" d="M53.781,55.348c0,1.482-1.199,2.682-2.682,2.682c-1.48,0-2.68-1.199-2.68-2.682
			c0-1.477,1.197-2.68,2.68-2.68S53.781,53.871,53.781,55.348z"/>
		<circle fill="#A38A7B" cx="62.996" cy="15.901" r="3.542"/>
		<circle fill="#A38A7B" cx="59.811" cy="33.043" r="3.715"/>
		<path fill="#A38A7B" d="M79.404,17.887c0,2.18-1.771,3.953-3.955,3.953c-2.186,0-3.953-1.773-3.953-3.953
			c0-2.186,1.77-3.955,3.953-3.955C77.635,13.932,79.404,15.701,79.404,17.887z"/>
	</g>
</g>
</svg>
